<?xml version="1.0" standalone="no"?>
<!DOCTYPE svg PUBLIC "-//W3C//DTD SVG 20010904//EN"
 "http://www.w3.org/TR/2001/REC-SVG-20010904/DTD/svg10.dtd">
<svg version="1.0" xmlns="http://www.w3.org/2000/svg"
 width="819.000000pt" height="259.000000pt" viewBox="0 0 819.000000 259.000000"
 preserveAspectRatio="xMidYMid meet">

<g transform="translate(0.000000,259.000000) scale(0.100000,-0.100000)"
fill="#000000" stroke="none">
<path d="M280 2215 l0 -155 190 0 190 0 0 155 0 155 -190 0 -190 0 0 -155z"/>
<path d="M7540 2215 l0 -155 190 0 190 0 0 155 0 155 -190 0 -190 0 0 -155z"/>
<path d="M6700 2070 l0 -140 -85 0 -85 0 0 -155 0 -155 84 0 84 0 4 -322 c4
-301 6 -328 26 -390 46 -138 126 -200 286 -219 95 -12 251 0 301 23 l25 11 0
155 c0 143 -1 154 -17 147 -10 -4 -50 -9 -90 -12 -83 -7 -125 6 -142 43 -7 17
-11 115 -11 294 l0 270 130 0 130 0 0 155 0 155 -130 0 -130 0 0 140 0 140
-190 0 -190 0 0 -140z"/>
<path d="M1340 1935 c-168 -38 -327 -157 -402 -300 -60 -117 -73 -172 -72
-325 1 -119 4 -145 28 -218 17 -51 47 -112 79 -160 179 -262 572 -341 776
-157 l41 37 0 -66 c0 -108 -29 -154 -125 -198 -45 -21 -65 -23 -185 -22 -127
0 -151 4 -277 40 l-23 6 0 -150 0 -150 38 -15 c121 -48 374 -58 522 -19 215
56 358 173 404 331 14 47 16 141 16 708 l0 653 -185 0 -185 0 0 -55 0 -55 -52
40 c-29 22 -78 49 -108 61 -72 27 -204 34 -290 14z m273 -329 c64 -19 117 -64
152 -128 25 -45 30 -67 33 -144 5 -118 -14 -179 -75 -246 -57 -60 -115 -83
-208 -82 -158 2 -261 95 -286 259 -18 114 15 212 97 284 74 65 186 87 287 57z"/>
<path d="M2850 1934 c-230 -49 -417 -235 -465 -461 -19 -87 -19 -229 0 -318
32 -155 145 -318 269 -390 210 -123 463 -118 605 10 l41 37 0 -56 0 -56 185 0
185 0 0 615 0 615 -185 0 -185 0 0 -56 0 -56 -37 29 c-123 95 -252 122 -413
87z m320 -350 c97 -53 147 -160 138 -297 -6 -95 -38 -166 -96 -217 -53 -48
-104 -64 -192 -63 -160 1 -271 109 -287 277 -14 153 63 278 199 322 70 23 174
13 238 -22z"/>
<path d="M5635 1934 c-38 -8 -112 -35 -164 -60 -75 -37 -108 -61 -171 -122
-124 -123 -180 -261 -180 -442 0 -249 121 -446 341 -554 131 -64 199 -80 339
-79 180 2 291 32 408 112 100 67 101 59 -18 170 l-104 97 -71 -30 c-65 -28
-78 -30 -195 -31 -107 0 -132 3 -171 21 -51 24 -109 80 -132 127 l-16 32 429
3 429 2 7 36 c4 20 4 84 1 143 -14 280 -159 476 -417 561 -87 28 -223 35 -315
14z m219 -318 c26 -8 63 -27 83 -41 38 -30 96 -113 87 -126 -3 -5 -120 -9
-260 -9 -283 0 -275 -2 -225 66 44 60 76 85 133 105 64 22 119 24 182 5z"/>
<path d="M280 1315 l0 -615 190 0 190 0 -2 613 -3 612 -187 3 -188 2 0 -615z"/>
<path d="M3910 1765 l0 -165 265 0 c146 0 265 -2 265 -5 0 -2 -130 -202 -290
-445 -159 -242 -290 -443 -290 -445 0 -3 257 -5 570 -5 l570 0 0 160 0 160
-270 0 c-169 0 -270 4 -270 10 0 5 131 208 290 450 160 243 290 443 290 445 0
3 -254 5 -565 5 l-565 0 0 -165z"/>
<path d="M7547 1923 c-4 -3 -7 -280 -7 -615 l0 -608 190 0 190 0 0 615 0 615
-183 0 c-101 0 -187 -3 -190 -7z"/>
</g>
</svg>
